<?xml version="1.0" standalone="no"?>
<!DOCTYPE svg PUBLIC "-//W3C//DTD SVG 20010904//EN"
 "http://www.w3.org/TR/2001/REC-SVG-20010904/DTD/svg10.dtd">
<svg version="1.0" xmlns="http://www.w3.org/2000/svg"
 width="370.000000pt" height="370.000000pt" viewBox="0 0 370.000000 370.000000"
 preserveAspectRatio="xMidYMid meet">
<metadata>
Created by potrace 1.11, written by Peter Selinger 2001-2013
</metadata>
<g transform="translate(0.000000,370.000000) scale(0.100000,-0.100000)"
fill="#000000" stroke="none">
<path d="M1688 3246 c17 -8 32 -17 32 -19 0 -3 -33 -5 -72 -6 -81 -2 -140 -6
-196 -15 -20 -3 -55 -8 -77 -11 -60 -7 -269 -60 -355 -90 -146 -51 -421 -198
-485 -258 -7 -7 -32 -28 -56 -47 -62 -51 -158 -147 -204 -205 -22 -27 -43 -51
-47 -53 -5 -2 -8 -8 -8 -12 0 -5 -13 -28 -29 -52 -179 -267 -225 -604 -124
-923 22 -71 98 -224 128 -260 l25 -30 -20 41 c-12 23 -23 55 -26 70 -3 16 -10
34 -16 41 -6 7 -8 13 -5 13 3 0 1 15 -4 33 -27 93 -27 303 0 395 5 17 8 32 6
32 -2 0 7 29 21 65 106 284 331 519 629 660 44 20 157 75 250 121 146 71 301
132 383 149 12 3 32 7 45 10 12 2 45 9 72 15 28 6 59 13 71 15 17 4 44 41 48
65 1 3 25 53 54 112 l52 106 109 -38 c137 -48 218 -87 322 -156 50 -33 73 -44
58 -28 -13 14 -39 35 -59 47 -19 11 -37 24 -40 28 -7 9 -62 42 -143 84 -83 43
-253 101 -322 110 l-50 6 33 -15z"/>
<path d="M2587 2958 c-3 -13 -9 -52 -13 -88 -3 -36 -10 -69 -15 -74 -5 -5 -31
7 -63 29 -42 29 -58 47 -68 78 -17 52 -33 57 -47 14 -6 -19 -23 -40 -36 -47
-36 -19 -26 -34 29 -40 36 -4 59 -14 96 -45 27 -22 49 -43 50 -47 0 -4 -37
-26 -81 -49 -75 -37 -80 -42 -66 -56 15 -15 25 -14 125 6 l108 23 54 -36 c53
-35 84 -44 94 -28 11 18 -8 49 -54 87 -53 43 -47 23 -66 224 -6 64 -36 95 -47
49z"/>
<path d="M1402 2758 c-34 -4 -79 -10 -100 -13 -20 -4 -50 -9 -67 -11 -109 -18
-264 -69 -384 -127 -101 -48 -231 -126 -231 -138 0 -5 -7 -9 -15 -9 -8 0 -15
-4 -15 -10 0 -5 -5 -10 -11 -10 -20 0 -169 -151 -230 -234 -80 -106 -155 -267
-174 -371 -29 -164 -21 -299 26 -445 24 -76 61 -157 83 -185 15 -19 15 -18 5
15 -6 19 -18 55 -27 80 -22 59 -22 328 -1 365 4 6 9 22 13 37 3 14 16 48 28
75 12 26 22 50 22 53 1 3 9 17 19 33 9 15 24 39 33 53 45 73 186 213 280 277
83 55 202 115 301 151 40 14 101 39 135 55 88 40 233 87 334 107 l85 17 55
115 c30 63 52 117 49 121 -9 8 -135 8 -213 -1z"/>
<path d="M1771 2496 c-6 -8 -13 -28 -16 -45 -3 -30 -2 -31 36 -31 32 0 39 3
39 19 0 23 16 37 23 19 7 -23 -5 -48 -24 -48 -27 0 -24 -33 4 -45 17 -8 22
-19 23 -48 1 -36 -10 -56 -23 -43 -4 3 -6 22 -5 41 1 34 1 35 -37 35 l-39 0 3
-42 c4 -52 32 -78 82 -78 35 0 72 15 85 34 12 17 9 101 -3 113 -8 8 -8 17 1
33 15 27 4 77 -20 90 -28 15 -116 12 -129 -4z"/>
<path d="M1957 2493 c-3 -10 -5 -71 -5 -135 l0 -118 37 0 c37 0 38 1 36 34 -2
18 1 40 6 47 6 10 9 7 9 -11 1 -49 11 -70 35 -70 20 0 24 7 30 51 8 61 15 59
17 -5 l1 -47 36 3 36 3 0 123 c0 68 -3 128 -6 134 -3 5 -26 8 -50 6 -43 -3
-43 -3 -55 -53 -6 -27 -13 -45 -14 -40 -1 6 -4 24 -6 40 -8 52 -11 55 -58 55
-34 0 -46 -4 -49 -17z"/>
<path d="M2283 2497 c-18 -29 -13 -47 12 -47 l25 0 0 -105 0 -105 40 0 40 0 0
105 0 105 26 0 c22 0 25 4 22 28 -3 27 -4 27 -80 29 -52 2 -79 -1 -85 -10z"/>
<path d="M2460 2375 l0 -135 40 0 40 0 0 61 c0 37 4 58 10 54 6 -3 10 -31 10
-61 l0 -54 38 0 37 0 -1 54 c0 30 -5 61 -12 68 -7 9 -8 18 -2 24 18 18 18 74
0 97 -15 17 -30 22 -89 24 l-71 3 0 -135z m105 57 c-1 -35 -30 -37 -31 -2 0
33 4 40 20 34 7 -3 12 -17 11 -32z"/>
<path d="M2686 2498 c-5 -16 -36 -229 -36 -245 0 -8 15 -13 40 -13 36 0 40 3
40 25 0 16 6 25 15 25 9 0 15 -9 15 -25 0 -22 4 -25 40 -25 22 0 40 4 40 9 0
5 -7 44 -14 87 -8 44 -17 96 -21 118 -3 21 -8 42 -11 47 -8 14 -104 11 -108
-3z m70 -125 c4 -32 1 -40 -11 -40 -12 0 -16 9 -14 36 5 65 18 67 25 4z"/>
<path d="M2838 2505 c-2 -3 5 -62 17 -133 l21 -127 61 -3 61 -3 8 63 c4 35 8
65 9 68 1 3 4 31 9 63 4 31 11 57 15 57 4 0 7 -54 7 -121 1 -73 5 -124 12
-127 5 -4 35 -5 67 -4 54 4 56 5 53 30 -2 15 -9 28 -15 28 -7 1 -19 2 -27 3
-8 0 -13 9 -11 19 2 9 4 20 4 25 1 4 10 7 21 7 30 0 28 47 -2 52 -34 5 -31 42
4 46 22 3 26 8 25 30 l-2 27 -109 1 c-69 0 -109 -3 -112 -10 -6 -18 -12 -59
-13 -90 -1 -44 -10 -27 -17 35 -3 29 -8 57 -11 62 -5 8 -67 10 -75 2z"/>
<path d="M3207 2503 c-4 -3 -7 -64 -7 -135 l0 -128 65 0 c63 0 65 1 65 25 0
18 -7 26 -25 31 -25 6 -25 8 -25 110 l0 104 -33 0 c-19 0 -37 -3 -40 -7z"/>
<path d="M1330 2398 c-325 -33 -608 -158 -808 -358 -86 -87 -202 -267 -202
-315 0 -8 -5 -15 -12 -15 -6 0 -9 -3 -6 -6 3 -3 2 -21 -4 -41 -5 -19 -12 -45
-15 -57 -3 -11 -7 -65 -8 -119 -2 -99 26 -264 47 -278 5 -3 10 -9 10 -12 0
-21 12 -46 19 -41 5 3 4 14 -2 25 -6 11 -12 60 -15 107 -8 169 41 319 151 460
30 39 159 162 170 162 3 0 28 15 55 34 56 39 172 96 194 96 8 0 18 5 21 10 3
6 13 10 22 10 8 0 29 6 46 14 102 45 271 101 343 112 47 7 84 29 84 49 0 8 5
15 10 15 6 0 10 7 10 15 0 9 14 42 30 75 20 40 26 60 18 61 -47 4 -93 3 -158
-3z"/>
<path d="M1728 2134 c-49 -46 -87 -102 -136 -200 -71 -141 -78 -198 -25 -192
24 3 32 14 69 103 49 117 84 181 121 221 41 43 40 18 -3 -145 -20 -77 -34
-147 -30 -156 9 -26 48 -14 66 20 44 87 186 295 201 295 4 0 -6 -62 -22 -137
-31 -146 -31 -183 1 -183 33 0 46 38 74 206 35 215 36 204 -17 204 -47 0 -68
-17 -140 -114 -39 -52 -46 -45 -27 25 7 25 7 46 0 63 -8 22 -15 26 -52 26 -35
0 -50 -6 -80 -36z"/>
<path d="M2465 2143 c-4 -16 -25 -103 -48 -195 -45 -180 -45 -203 4 -203 17 0
25 7 30 25 18 65 89 376 89 388 0 7 -14 12 -35 12 -30 0 -35 -4 -40 -27z"/>
<path d="M3220 2128 c-25 -97 -31 -108 -55 -108 -83 0 -184 -107 -185 -196 0
-66 80 -96 147 -55 26 16 32 17 37 5 3 -8 17 -14 31 -14 31 0 45 30 45 98 0
26 16 107 34 180 l34 132 -39 0 c-37 0 -39 -2 -49 -42z m-45 -201 c-4 -18 -8
-39 -8 -47 -1 -15 -37 -57 -37 -43 0 3 -11 -4 -25 -17 -19 -18 -27 -20 -39
-11 -18 15 -27 51 -13 51 6 0 7 3 4 7 -4 3 -1 13 7 22 8 9 15 21 16 26 1 6 5
9 10 8 4 -1 16 6 25 15 10 9 29 18 43 19 22 1 24 -2 17 -30z"/>
<path d="M2605 2134 c-22 -23 -15 -58 12 -62 30 -4 63 15 63 36 0 40 -45 55
-75 26z"/>
<path d="M3435 2104 c-114 -42 -167 -172 -114 -282 38 -77 121 -116 214 -99
65 12 97 31 128 80 72 110 22 260 -100 301 -56 19 -76 19 -128 0z"/>
<path d="M1338 2104 c-2 -1 -40 -5 -83 -8 -105 -8 -117 -10 -253 -56 -145 -48
-184 -64 -175 -73 3 -4 -1 -7 -10 -7 -19 0 -120 -58 -125 -71 -2 -5 -10 -9
-18 -9 -8 0 -14 -4 -14 -9 0 -4 -21 -25 -47 -45 -25 -20 -44 -36 -41 -36 3 0
-14 -21 -37 -47 -24 -26 -53 -65 -66 -87 -12 -23 -32 -60 -45 -83 -13 -24 -21
-43 -17 -43 3 0 -1 -7 -8 -17 -8 -9 -13 -18 -11 -20 2 -2 -2 -27 -8 -56 -12
-59 -15 -179 -5 -217 3 -14 8 -32 10 -40 2 -8 4 -16 5 -17 4 -5 7 -23 9 -45 0
-12 4 -18 7 -15 4 4 6 36 5 73 -1 36 4 93 10 127 12 62 66 186 94 214 8 8 15
18 15 21 0 7 78 88 120 126 8 7 42 31 75 52 33 21 63 43 67 49 4 5 8 6 8 2 0
-4 10 -2 23 5 12 7 24 13 27 14 13 3 47 16 62 25 10 5 26 9 36 9 10 0 22 3 26
8 4 4 11 7 14 8 4 0 18 5 32 11 29 12 140 47 155 48 6 1 21 5 34 9 14 5 40 10
59 12 19 2 40 11 47 21 30 40 76 136 72 147 -5 13 -42 28 -49 20z"/>
<path d="M2743 2028 c-15 -19 -59 -136 -73 -194 -16 -61 -9 -84 24 -84 26 0
27 1 51 93 11 42 24 66 47 85 33 29 68 51 81 52 15 0 6 -41 -23 -116 -36 -91
-36 -118 1 -122 25 -3 29 3 59 80 40 102 49 177 25 201 -19 19 -67 22 -97 6
-14 -8 -23 -8 -31 0 -15 15 -52 14 -64 -1z"/>
<path d="M2163 1978 c-49 -46 -82 -106 -83 -150 0 -56 70 -88 116 -53 26 19
31 19 37 -6 4 -16 12 -20 33 -17 22 2 30 10 35 33 4 17 18 69 30 117 12 48 19
94 16 102 -5 12 -22 16 -72 16 -63 0 -67 -2 -112 -42z m110 -38 c3 -11 1 -20
-4 -20 -5 0 -9 -5 -9 -10 0 -18 -81 -90 -101 -90 -14 0 -16 40 -3 51 8 6 12
14 11 18 -2 3 10 18 25 33 15 15 28 25 28 22 0 -3 8 0 18 5 24 15 29 14 35 -9z"/>
<path d="M2566 1988 c-7 -18 -24 -74 -37 -125 -20 -78 -21 -93 -9 -108 7 -9
22 -15 33 -13 17 3 26 24 54 128 18 69 31 131 28 138 -2 6 -16 12 -30 12 -20
0 -29 -8 -39 -32z"/>
<path d="M1140 1834 c-19 -7 -51 -14 -70 -17 -76 -10 -237 -75 -329 -132 -72
-45 -190 -171 -219 -233 -9 -20 -20 -39 -23 -42 -3 -3 -14 -32 -25 -65 -21
-66 -27 -256 -9 -274 7 -7 10 2 11 27 3 70 24 153 45 178 6 8 8 14 4 14 -5 0
0 9 10 20 10 11 15 20 11 20 -4 0 2 14 14 30 33 46 115 130 128 130 6 0 12 4
14 9 12 32 248 134 358 155 14 3 47 12 74 21 27 8 59 15 71 15 25 0 55 32 74
80 26 69 23 74 -44 75 -33 0 -76 -5 -95 -11z"/>
<path d="M1271 1671 c-10 -14 -35 -72 -55 -128 -21 -56 -44 -110 -52 -120 -13
-17 -13 -17 -14 3 0 18 -6 20 -52 18 -29 -1 -55 -3 -58 -4 -3 -1 -8 -2 -12 -1
-4 0 -25 -6 -48 -14 -23 -8 -44 -14 -48 -13 -4 1 -17 -3 -28 -10 -12 -6 -24
-8 -28 -5 -3 3 -6 1 -6 -5 0 -7 -3 -12 -7 -11 -16 2 -53 -14 -53 -23 0 -5 -4
-6 -10 -3 -5 3 -10 2 -10 -4 0 -6 -13 -17 -29 -25 -31 -16 -140 -125 -141
-141 -1 -2 -9 -24 -20 -47 -41 -94 -34 -222 17 -314 22 -40 123 -153 123 -138
0 4 10 -2 23 -14 13 -12 27 -19 30 -15 4 3 7 2 7 -4 0 -5 11 -15 25 -21 14 -6
25 -9 25 -6 0 3 -24 28 -52 57 -53 52 -73 78 -84 107 -3 8 -10 23 -15 33 -16
29 -21 155 -8 195 18 60 42 112 51 112 4 0 8 6 8 13 0 12 66 78 117 117 22 17
89 53 106 57 7 1 30 9 53 17 23 8 54 17 70 19 16 3 28 10 27 16 -2 6 4 11 13
11 9 0 14 -4 12 -9 -58 -161 -225 -581 -230 -581 -8 0 -95 58 -116 78 -33 30
-83 64 -88 60 -7 -8 69 -72 143 -120 38 -26 59 -46 56 -55 -6 -15 -23 -18 -23
-2 0 5 -4 8 -8 5 -5 -3 -16 3 -25 12 -29 31 -46 42 -52 33 -6 -10 51 -71 66
-71 18 0 20 -28 5 -65 -9 -21 -16 -44 -16 -51 0 -16 64 -84 79 -84 6 0 11 -4
11 -10 0 -5 6 -10 14 -10 8 0 16 -3 18 -7 2 -5 26 -18 53 -30 151 -65 379 -53
570 32 17 8 32 13 35 12 3 -1 20 8 38 21 17 13 32 21 32 17 0 -3 10 3 22 15
12 11 28 20 35 20 7 0 13 4 13 8 0 7 46 30 128 63 14 5 22 17 22 32 0 13 9 32
20 42 11 10 20 15 20 11 0 -3 23 19 51 50 124 137 200 307 224 503 4 30 11 64
15 77 5 12 7 24 5 25 -1 2 -5 30 -8 61 -3 32 -11 66 -17 78 -6 11 -8 20 -5 20
6 0 -52 98 -74 123 -14 17 -41 18 -444 16 l-428 -3 -18 -25z"/>
<path d="M1168 1635 c-2 -2 -30 -6 -63 -10 -33 -3 -65 -11 -72 -17 -7 -6 -13
-8 -13 -5 0 8 -105 -29 -172 -60 -32 -15 -58 -30 -58 -35 0 -4 -6 -8 -13 -8
-8 0 -25 -9 -38 -20 -84 -72 -109 -96 -109 -108 0 -7 -4 -10 -10 -7 -5 3 -10
1 -10 -5 0 -7 -9 -25 -21 -41 -11 -16 -22 -35 -23 -42 -2 -7 -10 -28 -19 -48
-25 -56 -34 -138 -23 -194 3 -11 5 -35 5 -54 2 -61 12 -26 15 50 2 43 10 87
19 105 9 17 13 34 10 37 -3 4 2 9 11 13 9 3 16 12 16 20 0 13 131 154 143 154
3 0 22 11 41 23 19 13 60 33 93 44 100 35 187 63 213 69 14 3 32 7 40 9 8 2
21 4 27 4 12 1 63 90 63 110 0 8 -46 22 -52 16z"/>
</g>
</svg>
